# xmcd
#
# Track frame offsets:
# 150
# 14748
# 46505
# 65483
# 120523
# 141503
# 155343
# 171793
# 219980
# 233603
# 254473
# 272260
# 284168
# 299018
#
# Disc length: 4289 seconds
#
#
# Revision: 2
# Processed by: cddbd v1.5.1PL2 Copyright (c) Steve Scherf et al.
# Submitted via: FreeRIP 2.942 
#
DISCID=d210bf0e
DTITLE=Stevie Ray Vaughan And Double Trouble - First Steps In Europe - Disc 2
DYEAR=1900
DGENRE=Bluesrock
TTITLE0=Scuttle Buttin
TTITLE1=The Things That I Used To Do
TTITLE2=Pride And Joy
TTITLE3=Dirty Pool
TTITLE4=Pretty Guy Shuffle
TTITLE5=Tell Me
TTITLE6=Mary Had A Little Lamb
TTITLE7=Texas Flood
TTITLE8=Love Struck Baby
TTITLE9=You'll Be Mine
TTITLE10=T-Bone Shuffle
TTITLE11=Texas Blues
TTITLE12=Last Call
TTITLE13=Beck's Boogie
EXTD=
EXTT0=
EXTT1=
EXTT2=
EXTT3=
EXTT4=
EXTT5=
EXTT6=
EXTT7=
EXTT8=
EXTT9=
EXTT10=
EXTT11=
EXTT12=
EXTT13=
PLAYORDER=
